<svg xmlns="http://www.w3.org/2000/svg" width="111" height="142" fill="none" viewBox="0 0 111 142"><rect width="56" height="44" x="2" y="2" stroke="#ABB2BF" stroke-opacity=".5" stroke-width="4" rx="6"/><path stroke="#ABB2BF" stroke-linecap="round" stroke-opacity=".5" stroke-width="4" d="M109 2H73a8 8 0 0 0-8 8v122a8 8 0 0 0 8 8h36"/><rect width="56" height="44" x="2" y="96" stroke="#ABB2BF" stroke-opacity=".5" stroke-width="4" rx="6"/><rect width="56" height="32" x="2" y="55" stroke="#ABB2BF" stroke-opacity=".5" stroke-width="4" rx="6"/><rect width="105" height="138" x="2" y="2" fill="white" fill-opacity=".5" stroke="white" stroke-width="4" rx="6"/><path fill="black" stroke="black" stroke-linejoin="round" stroke-width="2" d="M14.614 70.077a1 1 0 0 1 1.088.211l12 11.839a1 1 0 0 1-.827 1.704l-3.979-.502 2.486 5.94a1 1 0 0 1-.5 1.292l-2.89 1.345a1 1 0 0 1-1.347-.524l-2.473-5.98-2.365 3.229A1 1 0 0 1 14 88.04V71l.01-.15c.052-.341.279-.637.604-.773Z"/></svg>